<svg xmlns="http://www.w3.org/2000/svg" xmlns:xlink="http://www.w3.org/1999/xlink" width="700" zoomAndPan="magnify" viewBox="0 0 525 135.000003" height="180" preserveAspectRatio="xMidYMid meet" version="1.0"><defs><g/></defs><g fill="#00f000" fill-opacity="1"><g transform="translate(13.353337, 105.365597)"><g><path d="M 14.40625 -75.171875 C 14.820312 -75.691406 15.40625 -76.109375 16.15625 -76.421875 C 16.945312 -76.691406 17.960938 -76.878906 19.203125 -76.984375 C 20.648438 -76.117188 22.273438 -74.832031 24.078125 -73.125 C 25.890625 -71.425781 27.742188 -69.5625 29.640625 -67.53125 C 30.597656 -66.5 31.539062 -65.457031 32.46875 -64.40625 C 33.40625 -63.363281 34.335938 -62.304688 35.265625 -61.234375 C 37.054688 -59.140625 38.734375 -57.1875 40.296875 -55.375 C 41.867188 -53.570312 43.222656 -52.117188 44.359375 -51.015625 C 45.492188 -49.910156 46.265625 -49.359375 46.671875 -49.359375 C 47.160156 -49.734375 47.988281 -50.40625 49.15625 -51.375 C 49.738281 -51.851562 50.375 -52.398438 51.0625 -53.015625 C 51.75 -53.640625 52.488281 -54.296875 53.28125 -54.984375 C 54.070312 -55.671875 54.921875 -56.394531 55.828125 -57.15625 C 56.742188 -57.914062 57.703125 -58.722656 58.703125 -59.578125 C 59.703125 -60.410156 60.71875 -61.238281 61.75 -62.0625 C 62.78125 -62.882812 63.832031 -63.726562 64.90625 -64.59375 C 67.039062 -66.3125 69.207031 -67.960938 71.40625 -69.546875 C 72.507812 -70.335938 73.59375 -71.085938 74.65625 -71.796875 C 75.726562 -72.503906 76.78125 -73.179688 77.8125 -73.828125 C 78.84375 -74.453125 79.847656 -75.019531 80.828125 -75.53125 C 81.804688 -76.050781 82.742188 -76.519531 83.640625 -76.9375 C 84.535156 -77.3125 85.390625 -77.609375 86.203125 -77.828125 C 87.015625 -78.054688 87.765625 -78.1875 88.453125 -78.21875 C 89.410156 -77.53125 90.421875 -76.804688 91.484375 -76.046875 C 92.554688 -75.296875 93.578125 -74.507812 94.546875 -73.6875 C 95.023438 -73.238281 95.476562 -72.796875 95.90625 -72.359375 C 96.332031 -71.929688 96.738281 -71.476562 97.125 -71 C 97.84375 -70.0625 98.359375 -69.0625 98.671875 -68 L 97.640625 -65.78125 C 97.640625 -65.75 97.640625 -65.707031 97.640625 -65.65625 C 97.640625 -65.601562 97.640625 -65.539062 97.640625 -65.46875 C 97.609375 -65.40625 97.59375 -65.335938 97.59375 -65.265625 C 97.59375 -65.191406 97.570312 -65.140625 97.53125 -65.109375 C 97.050781 -64.046875 96.523438 -62.875 95.953125 -61.59375 C 95.390625 -60.320312 94.816406 -58.984375 94.234375 -57.578125 C 93.023438 -54.679688 91.765625 -51.578125 90.453125 -48.265625 C 89.148438 -44.960938 87.828125 -41.539062 86.484375 -38 C 85.796875 -36.207031 85.113281 -34.425781 84.4375 -32.65625 C 83.769531 -30.882812 83.109375 -29.140625 82.453125 -27.421875 C 81.109375 -23.910156 79.816406 -20.5 78.578125 -17.1875 C 77.335938 -13.882812 76.203125 -10.84375 75.171875 -8.0625 C 74.617188 -6.675781 74.109375 -5.363281 73.640625 -4.125 C 73.179688 -2.882812 72.765625 -1.734375 72.390625 -0.671875 C 71.972656 0.390625 71.597656 1.328125 71.265625 2.140625 C 70.941406 2.953125 70.660156 3.648438 70.421875 4.234375 C 70.078125 4.304688 69.695312 4.375 69.28125 4.4375 C 68.875 4.507812 68.445312 4.546875 68 4.546875 C 66.550781 4.546875 65.085938 4.375 63.609375 4.03125 C 62.023438 3.644531 60.597656 3.128906 59.328125 2.484375 C 58.671875 2.140625 58.078125 1.75 57.546875 1.3125 C 57.015625 0.882812 56.523438 0.429688 56.078125 -0.046875 C 55.210938 -1.015625 54.78125 -2.132812 54.78125 -3.40625 C 54.78125 -3.988281 54.832031 -4.660156 54.9375 -5.421875 C 55.039062 -6.179688 55.210938 -7.039062 55.453125 -8 C 55.867188 -9.96875 56.4375 -12.117188 57.15625 -14.453125 C 57.5 -15.660156 57.875 -16.890625 58.28125 -18.140625 C 58.695312 -19.398438 59.128906 -20.6875 59.578125 -22 C 60.472656 -24.644531 61.40625 -27.273438 62.375 -29.890625 C 62.851562 -31.203125 63.316406 -32.476562 63.765625 -33.71875 C 64.210938 -34.957031 64.660156 -36.160156 65.109375 -37.328125 C 65.554688 -38.503906 65.984375 -39.613281 66.390625 -40.65625 C 66.804688 -41.707031 67.1875 -42.679688 67.53125 -43.578125 C 67.875 -44.472656 68.179688 -45.269531 68.453125 -45.96875 C 68.734375 -46.675781 68.976562 -47.304688 69.1875 -47.859375 L 69.8125 -49.46875 L 49.875 -35.375 C 49.050781 -35.375 48.070312 -35.679688 46.9375 -36.296875 C 46.351562 -36.609375 45.75 -36.96875 45.125 -37.375 C 44.507812 -37.789062 43.859375 -38.238281 43.171875 -38.71875 C 41.785156 -39.6875 40.367188 -40.796875 38.921875 -42.046875 C 37.484375 -43.304688 36.066406 -44.609375 34.671875 -45.953125 C 33.273438 -47.296875 31.972656 -48.570312 30.765625 -49.78125 C 29.492188 -51.019531 28.394531 -52.117188 27.46875 -53.078125 C 27.125 -51.910156 26.757812 -50.6875 26.375 -49.40625 C 26 -48.132812 25.625 -46.828125 25.25 -45.484375 C 24.875 -44.109375 24.476562 -42.738281 24.0625 -41.375 C 23.644531 -40.019531 23.210938 -38.640625 22.765625 -37.234375 C 21.910156 -34.410156 21.050781 -31.585938 20.1875 -28.765625 C 19.320312 -25.941406 18.492188 -23.21875 17.703125 -20.59375 C 17.296875 -19.289062 16.910156 -18.023438 16.546875 -16.796875 C 16.179688 -15.578125 15.828125 -14.398438 15.484375 -13.265625 C 15.140625 -12.097656 14.820312 -11.003906 14.53125 -9.984375 C 14.238281 -8.972656 13.972656 -8.019531 13.734375 -7.125 C 13.523438 -6.570312 13.367188 -6.054688 13.265625 -5.578125 C 13.097656 -5.054688 12.945312 -4.660156 12.8125 -4.390625 C 12.601562 -4.078125 12.328125 -3.851562 11.984375 -3.71875 C 11.566406 -3.539062 11.050781 -3.453125 10.4375 -3.453125 C 9.09375 -3.453125 7.710938 -3.78125 6.296875 -4.4375 C 5.535156 -4.78125 4.820312 -5.148438 4.15625 -5.546875 C 3.488281 -5.941406 2.84375 -6.378906 2.21875 -6.859375 C 1.5625 -7.347656 0.972656 -7.832031 0.453125 -8.3125 C -0.0546875 -8.789062 -0.535156 -9.289062 -0.984375 -9.8125 C -1.773438 -10.8125 -2.203125 -11.722656 -2.265625 -12.546875 C -2.304688 -12.679688 -2.328125 -12.816406 -2.328125 -12.953125 C -2.328125 -13.097656 -2.328125 -13.238281 -2.328125 -13.375 L -2.328125 -14.25 C -2.328125 -17.070312 -2.066406 -20 -1.546875 -23.03125 C -1.273438 -24.539062 -0.96875 -26.078125 -0.625 -27.640625 C -0.28125 -29.210938 0.113281 -30.789062 0.5625 -32.375 C 1.425781 -35.539062 2.40625 -38.757812 3.5 -42.03125 C 4.601562 -45.300781 5.722656 -48.570312 6.859375 -51.84375 C 7.410156 -53.457031 7.953125 -55.070312 8.484375 -56.6875 C 9.023438 -58.3125 9.550781 -59.914062 10.0625 -61.5 C 10.582031 -63.082031 11.066406 -64.644531 11.515625 -66.1875 C 11.960938 -67.738281 12.375 -69.253906 12.75 -70.734375 C 12.75 -70.765625 12.769531 -70.800781 12.8125 -70.84375 C 13.007812 -71.769531 13.210938 -72.59375 13.421875 -73.3125 C 13.628906 -74.039062 13.957031 -74.660156 14.40625 -75.171875 Z M 14.40625 -75.171875 "/></g></g></g><g fill="#00f000" fill-opacity="1"><g transform="translate(103.852739, 105.365597)"><g><path d="M 18.484375 -44.65625 C 19.347656 -43.800781 20.070312 -42.957031 20.65625 -42.125 C 20.925781 -41.6875 21.191406 -41.25 21.453125 -40.8125 C 21.710938 -40.382812 21.960938 -39.929688 22.203125 -39.453125 C 22.441406 -38.960938 22.664062 -38.46875 22.875 -37.96875 C 23.082031 -37.476562 23.289062 -36.972656 23.5 -36.453125 C 23.457031 -36.421875 23.421875 -36.359375 23.390625 -36.265625 C 23.359375 -36.179688 23.320312 -36.070312 23.28125 -35.9375 C 23.25 -35.800781 23.207031 -35.679688 23.15625 -35.578125 C 23.101562 -35.472656 23.046875 -35.351562 22.984375 -35.21875 C 22.910156 -35.070312 22.847656 -34.945312 22.796875 -34.84375 C 22.742188 -34.75 22.679688 -34.648438 22.609375 -34.546875 C 22.546875 -34.441406 22.488281 -34.363281 22.4375 -34.3125 C 22.382812 -34.257812 22.34375 -34.21875 22.3125 -34.1875 C 21.519531 -33.007812 20.707031 -31.578125 19.875 -29.890625 C 19.46875 -29.035156 19.082031 -28.140625 18.71875 -27.203125 C 18.351562 -26.273438 18 -25.332031 17.65625 -24.375 C 17.3125 -23.40625 17 -22.4375 16.71875 -21.46875 C 16.445312 -20.507812 16.207031 -19.550781 16 -18.59375 C 15.757812 -17.625 15.585938 -16.707031 15.484375 -15.84375 C 15.378906 -14.988281 15.328125 -14.179688 15.328125 -13.421875 L 15.328125 -12.859375 C 15.328125 -12.785156 15.328125 -12.695312 15.328125 -12.59375 C 15.328125 -12.488281 15.347656 -12.40625 15.390625 -12.34375 C 16.179688 -12.789062 17 -13.320312 17.84375 -13.9375 C 18.6875 -14.5625 19.585938 -15.25 20.546875 -16 C 21.472656 -16.757812 22.398438 -17.550781 23.328125 -18.375 C 24.265625 -19.207031 25.210938 -20.050781 26.171875 -20.90625 C 27.140625 -21.769531 28.078125 -22.628906 28.984375 -23.484375 C 29.898438 -24.347656 30.789062 -25.210938 31.65625 -26.078125 C 32.507812 -26.929688 33.316406 -27.738281 34.078125 -28.5 C 34.835938 -29.257812 35.539062 -29.96875 36.1875 -30.625 C 36.882812 -30.101562 37.710938 -29.582031 38.671875 -29.0625 C 39.148438 -28.789062 39.613281 -28.535156 40.0625 -28.296875 C 40.507812 -28.054688 40.957031 -27.816406 41.40625 -27.578125 C 41.851562 -27.328125 42.25 -27.109375 42.59375 -26.921875 C 42.9375 -26.734375 43.226562 -26.554688 43.46875 -26.390625 C 43.988281 -26.046875 44.09375 -25.820312 43.78125 -25.71875 C 43.539062 -25.164062 43.226562 -24.535156 42.84375 -23.828125 C 42.46875 -23.117188 42.007812 -22.335938 41.46875 -21.484375 C 40.914062 -20.617188 40.316406 -19.722656 39.671875 -18.796875 C 39.035156 -17.867188 38.359375 -16.90625 37.640625 -15.90625 C 36.878906 -14.90625 36.113281 -13.90625 35.34375 -12.90625 C 34.570312 -11.90625 33.753906 -10.90625 32.890625 -9.90625 C 32.023438 -8.914062 31.171875 -7.972656 30.328125 -7.078125 C 29.484375 -6.179688 28.632812 -5.335938 27.78125 -4.546875 C 26.914062 -3.753906 26.085938 -3.019531 25.296875 -2.34375 C 24.503906 -1.675781 23.710938 -1.101562 22.921875 -0.625 C 21.367188 0.40625 20.023438 0.921875 18.890625 0.921875 C 18.546875 0.921875 18.140625 0.882812 17.671875 0.8125 C 17.210938 0.75 16.691406 0.648438 16.109375 0.515625 C 15.523438 0.347656 14.921875 0.171875 14.296875 -0.015625 C 13.679688 -0.210938 13.046875 -0.429688 12.390625 -0.671875 C 11.734375 -0.910156 11.078125 -1.160156 10.421875 -1.421875 C 9.773438 -1.679688 9.109375 -1.945312 8.421875 -2.21875 C 7.734375 -2.5 7.078125 -2.785156 6.453125 -3.078125 C 5.835938 -3.367188 5.234375 -3.648438 4.640625 -3.921875 C 3.398438 -4.503906 2.40625 -5.039062 1.65625 -5.53125 C 0.820312 -5.976562 0.269531 -6.390625 0 -6.765625 C -0.925781 -7.929688 -1.597656 -9.253906 -2.015625 -10.734375 C -2.429688 -12.210938 -2.640625 -13.796875 -2.640625 -15.484375 C -2.640625 -16.421875 -2.585938 -17.40625 -2.484375 -18.4375 C -2.378906 -19.46875 -2.207031 -20.566406 -1.96875 -21.734375 C -1.71875 -22.910156 -1.429688 -24.082031 -1.109375 -25.25 C -0.785156 -26.414062 -0.429688 -27.601562 -0.046875 -28.8125 C 0.742188 -31.1875 1.671875 -33.507812 2.734375 -35.78125 C 3.765625 -38.050781 4.847656 -40.0625 5.984375 -41.8125 C 7.117188 -43.570312 8.289062 -45.003906 9.5 -46.109375 C 10.664062 -47.171875 11.785156 -47.703125 12.859375 -47.703125 C 13.785156 -47.703125 14.660156 -47.445312 15.484375 -46.9375 C 16.078125 -46.59375 16.617188 -46.222656 17.109375 -45.828125 C 17.609375 -45.429688 18.066406 -45.039062 18.484375 -44.65625 Z M 17.609375 -66.34375 C 17.671875 -66.34375 17.769531 -66.34375 17.90625 -66.34375 C 18.050781 -66.34375 18.242188 -66.363281 18.484375 -66.40625 C 18.691406 -66.4375 18.914062 -66.453125 19.15625 -66.453125 C 19.394531 -66.453125 19.65625 -66.46875 19.9375 -66.5 C 20.207031 -66.539062 20.476562 -66.5625 20.75 -66.5625 C 21.03125 -66.5625 21.328125 -66.578125 21.640625 -66.609375 C 21.910156 -66.609375 22.191406 -66.609375 22.484375 -66.609375 C 22.773438 -66.609375 23.039062 -66.609375 23.28125 -66.609375 C 24.175781 -66.609375 25.191406 -66.296875 26.328125 -65.671875 C 26.878906 -65.328125 27.421875 -64.941406 27.953125 -64.515625 C 28.492188 -64.085938 29.003906 -63.597656 29.484375 -63.046875 C 30.441406 -61.972656 31.265625 -60.695312 31.953125 -59.21875 C 32.609375 -57.769531 32.9375 -56.1875 32.9375 -54.46875 C 32.9375 -53.226562 32.539062 -52.210938 31.75 -51.421875 C 30.894531 -50.628906 29.503906 -50.234375 27.578125 -50.234375 C 25.785156 -50.234375 24.078125 -50.492188 22.453125 -51.015625 C 20.867188 -51.460938 19.457031 -52.148438 18.21875 -53.078125 C 17.019531 -53.941406 16.054688 -54.972656 15.328125 -56.171875 C 14.609375 -57.378906 14.25 -58.6875 14.25 -60.09375 C 14.25 -61.132812 14.421875 -62.117188 14.765625 -63.046875 C 15.078125 -64.003906 15.539062 -64.96875 16.15625 -65.9375 Z M 17.609375 -66.34375 "/></g></g></g><g fill="#00f000" fill-opacity="1"><g transform="translate(138.39016, 105.365597)"><g><path d="M 11.359375 -37.234375 C 12.117188 -37.234375 12.859375 -37.078125 13.578125 -36.765625 C 14.578125 -36.316406 15.5 -35.632812 16.34375 -34.71875 C 17.1875 -33.8125 17.832031 -32.890625 18.28125 -31.953125 C 19.070312 -32.992188 20 -34.03125 21.0625 -35.0625 C 22.132812 -36.019531 23.289062 -36.929688 24.53125 -37.796875 C 25.726562 -38.660156 26.878906 -39.332031 27.984375 -39.8125 C 29.148438 -40.289062 30.148438 -40.53125 30.984375 -40.53125 C 32.941406 -40.53125 34.816406 -40.03125 36.609375 -39.03125 C 38.328125 -38.070312 39.820312 -36.828125 41.09375 -35.296875 C 42.375 -33.765625 43.375 -32.160156 44.09375 -30.484375 C 44.8125 -28.816406 45.171875 -27.3125 45.171875 -25.96875 C 45.171875 -25.457031 45.15625 -24.941406 45.125 -24.421875 C 45.09375 -23.898438 45.039062 -23.398438 44.96875 -22.921875 C 44.90625 -22.410156 44.820312 -21.894531 44.71875 -21.375 C 44.613281 -20.851562 44.523438 -20.335938 44.453125 -19.828125 C 44.390625 -19.273438 44.3125 -18.738281 44.21875 -18.21875 C 44.132812 -17.707031 44.054688 -17.175781 43.984375 -16.625 C 43.921875 -16.070312 43.863281 -15.519531 43.8125 -14.96875 C 43.757812 -14.414062 43.734375 -13.867188 43.734375 -13.328125 C 43.734375 -12.222656 43.757812 -11.410156 43.8125 -10.890625 C 43.863281 -10.378906 44.078125 -10.085938 44.453125 -10.015625 C 45.078125 -10.148438 45.882812 -10.597656 46.875 -11.359375 C 47.363281 -11.734375 47.875 -12.144531 48.40625 -12.59375 C 48.9375 -13.039062 49.492188 -13.539062 50.078125 -14.09375 C 50.671875 -14.644531 51.265625 -15.222656 51.859375 -15.828125 C 52.460938 -16.429688 53.09375 -17.054688 53.75 -17.703125 C 54.40625 -18.359375 55.039062 -19.019531 55.65625 -19.6875 C 56.28125 -20.363281 56.921875 -21.046875 57.578125 -21.734375 C 58.804688 -23.078125 59.988281 -24.382812 61.125 -25.65625 C 62.269531 -26.9375 63.285156 -28.070312 64.171875 -29.0625 L 64.953125 -29.84375 C 65.085938 -29.976562 65.210938 -30.097656 65.328125 -30.203125 C 65.453125 -30.304688 65.585938 -30.425781 65.734375 -30.5625 C 65.835938 -30.5 66.007812 -30.347656 66.25 -30.109375 L 67.171875 -29.28125 C 67.378906 -29.101562 67.613281 -28.882812 67.875 -28.625 C 68.132812 -28.375 68.4375 -28.078125 68.78125 -27.734375 C 69.082031 -27.378906 69.441406 -26.992188 69.859375 -26.578125 C 70.273438 -26.171875 70.738281 -25.691406 71.25 -25.140625 C 71.488281 -24.867188 71.691406 -24.59375 71.859375 -24.3125 C 72.035156 -24.039062 72.175781 -23.769531 72.28125 -23.5 C 72.25 -23.1875 72.113281 -22.859375 71.875 -22.515625 C 71.738281 -22.335938 71.609375 -22.15625 71.484375 -21.96875 C 71.367188 -21.78125 71.238281 -21.597656 71.09375 -21.421875 C 70.6875 -20.773438 70.238281 -20.085938 69.75 -19.359375 C 69.269531 -18.640625 68.738281 -17.847656 68.15625 -16.984375 C 67.570312 -16.128906 66.953125 -15.28125 66.296875 -14.4375 C 65.640625 -13.59375 64.929688 -12.722656 64.171875 -11.828125 C 63.421875 -10.929688 62.648438 -10.039062 61.859375 -9.15625 C 61.066406 -8.28125 60.222656 -7.414062 59.328125 -6.5625 C 57.535156 -4.800781 55.625 -3.25 53.59375 -1.90625 C 51.5625 -0.53125 49.375 0.566406 47.03125 1.390625 C 44.726562 2.222656 42.285156 2.640625 39.703125 2.640625 C 37.535156 2.640625 35.765625 2.207031 34.390625 1.34375 C 32.972656 0.445312 31.851562 -0.722656 31.03125 -2.171875 C 30.207031 -3.617188 29.601562 -5.285156 29.21875 -7.171875 C 29.019531 -8.109375 28.84375 -9.054688 28.6875 -10.015625 C 28.53125 -10.984375 28.414062 -11.960938 28.34375 -12.953125 C 28.207031 -14.710938 28.128906 -16.316406 28.109375 -17.765625 C 28.097656 -19.210938 27.953125 -20.140625 27.671875 -20.546875 C 26.878906 -19.753906 26.15625 -18.707031 25.5 -17.40625 C 25.15625 -16.71875 24.820312 -16 24.5 -15.25 C 24.175781 -14.507812 23.84375 -13.742188 23.5 -12.953125 C 23.15625 -12.160156 22.816406 -11.351562 22.484375 -10.53125 C 22.160156 -9.707031 21.828125 -8.882812 21.484375 -8.0625 C 20.828125 -6.40625 20.101562 -4.890625 19.3125 -3.515625 C 18.9375 -2.828125 18.539062 -2.207031 18.125 -1.65625 C 17.707031 -1.101562 17.273438 -0.601562 16.828125 -0.15625 C 15.929688 0.707031 14.898438 1.140625 13.734375 1.140625 C 12.628906 1.140625 11.492188 1.015625 10.328125 0.765625 C 9.160156 0.523438 8.078125 0.203125 7.078125 -0.203125 C 6.046875 -0.546875 5.179688 -0.992188 4.484375 -1.546875 C 3.835938 -1.992188 3.425781 -2.492188 3.25 -3.046875 C 3.320312 -3.253906 3.414062 -3.53125 3.53125 -3.875 C 3.65625 -4.21875 3.800781 -4.613281 3.96875 -5.0625 C 4.144531 -5.507812 4.328125 -5.972656 4.515625 -6.453125 C 4.703125 -6.929688 4.898438 -7.429688 5.109375 -7.953125 C 5.484375 -8.984375 5.828125 -10 6.140625 -11 C 6.453125 -12 6.644531 -12.804688 6.71875 -13.421875 L 6.65625 -13.421875 C 6.789062 -13.804688 6.925781 -14.238281 7.0625 -14.71875 C 7.207031 -15.195312 7.347656 -15.710938 7.484375 -16.265625 C 7.617188 -16.816406 7.722656 -17.34375 7.796875 -17.84375 C 7.867188 -18.34375 7.90625 -18.832031 7.90625 -19.3125 C 7.90625 -19.65625 7.90625 -19.960938 7.90625 -20.234375 C 7.90625 -20.515625 7.882812 -20.738281 7.84375 -20.90625 C 7.78125 -21.320312 7.726562 -21.617188 7.6875 -21.796875 C 7.414062 -21.617188 7.109375 -21.425781 6.765625 -21.21875 C 6.421875 -21.007812 6.023438 -20.800781 5.578125 -20.59375 C 4.710938 -20.15625 3.972656 -19.9375 3.359375 -19.9375 C 3.222656 -19.9375 3.132812 -19.953125 3.09375 -19.984375 L -0.265625 -24.0625 C -0.398438 -24.226562 -0.523438 -24.394531 -0.640625 -24.5625 C -0.765625 -24.738281 -0.894531 -24.914062 -1.03125 -25.09375 C -1.132812 -25.269531 -1.226562 -25.453125 -1.3125 -25.640625 C -1.40625 -25.828125 -1.484375 -26.003906 -1.546875 -26.171875 C -1.234375 -26.929688 -0.648438 -27.945312 0.203125 -29.21875 C 0.617188 -29.84375 1.078125 -30.460938 1.578125 -31.078125 C 2.078125 -31.703125 2.617188 -32.304688 3.203125 -32.890625 C 4.367188 -34.054688 5.65625 -35.070312 7.0625 -35.9375 C 8.476562 -36.800781 9.910156 -37.234375 11.359375 -37.234375 Z M 11.359375 -37.234375 "/></g></g></g><g fill="#00f000" fill-opacity="1"><g transform="translate(202.457335, 105.365597)"><g><path d="M 28.5 -88.296875 C 29.15625 -88.296875 29.75 -88.25 30.28125 -88.15625 C 30.8125 -88.070312 31.25 -87.945312 31.59375 -87.78125 L 30.3125 -83.953125 C 28.832031 -78.890625 27.425781 -73.84375 26.09375 -68.8125 C 24.769531 -63.789062 23.609375 -58.972656 22.609375 -54.359375 C 21.617188 -49.753906 20.847656 -45.523438 20.296875 -41.671875 C 21.941406 -43.179688 23.847656 -44.515625 26.015625 -45.671875 C 28.191406 -46.828125 30.789062 -47.40625 33.8125 -47.40625 C 35.675781 -47.40625 37.40625 -47.050781 39 -46.34375 C 40.601562 -45.632812 41.882812 -44.515625 42.84375 -42.984375 C 43.8125 -41.453125 44.296875 -39.445312 44.296875 -36.96875 C 44.296875 -34.863281 43.875 -32.96875 43.03125 -31.28125 C 42.1875 -29.601562 41.050781 -28.125 39.625 -26.84375 C 38.195312 -25.570312 36.613281 -24.503906 34.875 -23.640625 C 33.132812 -22.785156 31.367188 -22.117188 29.578125 -21.640625 C 30.472656 -20.222656 31.359375 -18.765625 32.234375 -17.265625 C 33.117188 -15.773438 34.015625 -14.382812 34.921875 -13.09375 C 35.835938 -11.800781 36.796875 -10.75 37.796875 -9.9375 C 38.796875 -9.125 39.863281 -8.71875 41 -8.71875 C 41.613281 -8.71875 42.421875 -9.101562 43.421875 -9.875 C 44.421875 -10.65625 45.539062 -11.679688 46.78125 -12.953125 C 48.019531 -14.234375 49.300781 -15.644531 50.625 -17.1875 C 51.945312 -18.738281 53.21875 -20.3125 54.4375 -21.90625 C 55.664062 -23.507812 56.785156 -25.007812 57.796875 -26.40625 C 58.816406 -27.800781 59.628906 -28.972656 60.234375 -29.921875 C 60.835938 -30.867188 61.171875 -31.460938 61.234375 -31.703125 C 63.023438 -30.253906 64.347656 -29.160156 65.203125 -28.421875 C 66.066406 -27.679688 66.644531 -27.144531 66.9375 -26.8125 C 67.226562 -26.488281 67.410156 -26.207031 67.484375 -25.96875 C 67.273438 -25.5625 67.039062 -25.125 66.78125 -24.65625 C 66.53125 -24.1875 66.265625 -23.710938 65.984375 -23.234375 C 64.816406 -21.335938 63.59375 -19.257812 62.3125 -17 C 61.039062 -14.75 59.65625 -12.519531 58.15625 -10.3125 C 56.664062 -8.113281 55.039062 -6.109375 53.28125 -4.296875 C 51.53125 -2.492188 49.585938 -1.046875 47.453125 0.046875 C 45.316406 1.148438 42.957031 1.703125 40.375 1.703125 C 36.726562 1.703125 33.601562 1.28125 31 0.4375 C 28.40625 -0.40625 26.1875 -1.523438 24.34375 -2.921875 C 22.5 -4.316406 20.867188 -5.863281 19.453125 -7.5625 C 18.046875 -9.269531 16.707031 -10.984375 15.4375 -12.703125 C 14.71875 -11.671875 14.140625 -10.460938 13.703125 -9.078125 C 13.273438 -7.703125 12.84375 -6.304688 12.40625 -4.890625 C 11.976562 -3.484375 11.453125 -2.175781 10.828125 -0.96875 C 10.210938 0.226562 9.378906 1.195312 8.328125 1.9375 C 7.285156 2.675781 5.882812 3.046875 4.125 3.046875 C 2.613281 3.046875 1.375 2.90625 0.40625 2.625 C -0.550781 2.351562 -1.253906 1.675781 -1.703125 0.59375 C -2.148438 -0.488281 -2.375 -2.234375 -2.375 -4.640625 C -2.375 -6.710938 -2.242188 -9.359375 -1.984375 -12.578125 C -1.722656 -15.796875 -1.316406 -19.46875 -0.765625 -23.59375 C -0.222656 -27.726562 0.5 -32.160156 1.40625 -36.890625 C 2.320312 -41.617188 3.441406 -46.539062 4.765625 -51.65625 C 6.097656 -56.769531 7.660156 -61.925781 9.453125 -67.125 C 11.242188 -72.320312 13.289062 -77.429688 15.59375 -82.453125 C 15.9375 -83.179688 16.363281 -83.90625 16.875 -84.625 C 17.394531 -85.34375 17.894531 -86.03125 18.375 -86.6875 L 26.953125 -88.234375 C 27.222656 -88.273438 27.476562 -88.296875 27.71875 -88.296875 C 27.96875 -88.296875 28.226562 -88.296875 28.5 -88.296875 Z M 27.578125 -34.03125 C 26.816406 -34.03125 26.066406 -33.796875 25.328125 -33.328125 C 24.585938 -32.859375 23.929688 -32.332031 23.359375 -31.75 C 22.796875 -31.164062 22.359375 -30.703125 22.046875 -30.359375 L 23.34375 -28.546875 C 23.925781 -28.828125 24.484375 -29.035156 25.015625 -29.171875 C 25.546875 -29.304688 26.035156 -29.394531 26.484375 -29.4375 C 27.273438 -29.738281 28.003906 -30.144531 28.671875 -30.65625 C 29.347656 -31.175781 29.6875 -31.832031 29.6875 -32.625 C 29.6875 -33.070312 29.445312 -33.414062 28.96875 -33.65625 C 28.488281 -33.90625 28.023438 -34.03125 27.578125 -34.03125 Z M 27.578125 -34.03125 "/></g></g></g><g fill="#00f000" fill-opacity="1"><g transform="translate(261.620092, 105.365597)"><g/></g></g><g fill="#00f000" fill-opacity="1"><g transform="translate(296.364026, 105.365597)"><g><path d="M 15.84375 1.65625 C 14.40625 2.582031 12.875 3.046875 11.25 3.046875 C 9.664062 3.046875 8.304688 2.753906 7.171875 2.171875 C 6.035156 1.585938 5.109375 0.796875 4.390625 -0.203125 C 3.628906 -1.203125 3.078125 -2.351562 2.734375 -3.65625 C 2.390625 -4.96875 2.21875 -6.363281 2.21875 -7.84375 L 2.21875 -8.78125 C 2.21875 -8.945312 2.222656 -9.109375 2.234375 -9.265625 C 2.253906 -9.421875 2.285156 -9.585938 2.328125 -9.765625 C 2.597656 -12.441406 3.113281 -15.332031 3.875 -18.4375 C 4.59375 -21.53125 5.46875 -24.726562 6.5 -28.03125 C 7.5 -31.34375 8.582031 -34.703125 9.75 -38.109375 C 10.925781 -41.515625 12.082031 -44.867188 13.21875 -48.171875 C 14.320312 -51.472656 15.367188 -54.691406 16.359375 -57.828125 C 17.359375 -60.960938 18.203125 -63.90625 18.890625 -66.65625 C 18.378906 -66.59375 17.585938 -66.488281 16.515625 -66.34375 C 15.453125 -66.207031 14.234375 -66.070312 12.859375 -65.9375 C 11.484375 -65.800781 10.035156 -65.644531 8.515625 -65.46875 C 7.765625 -65.40625 7.007812 -65.351562 6.25 -65.3125 C 5.488281 -65.28125 4.765625 -65.25 4.078125 -65.21875 C 1.878906 -65.21875 0.00390625 -65.367188 -1.546875 -65.671875 C -3.097656 -65.984375 -4.351562 -66.414062 -5.3125 -66.96875 C -6.25 -67.445312 -6.957031 -68.066406 -7.4375 -68.828125 C -7.851562 -69.546875 -8.0625 -70.320312 -8.0625 -71.15625 C -8.0625 -71.976562 -7.695312 -72.71875 -6.96875 -73.375 C -6.207031 -74.019531 -5.003906 -74.414062 -3.359375 -74.5625 C -0.597656 -74.800781 2.128906 -75.039062 4.828125 -75.28125 C 7.523438 -75.519531 10.234375 -75.78125 12.953125 -76.0625 C 15.640625 -76.332031 18.332031 -76.585938 21.03125 -76.828125 C 23.738281 -77.066406 26.453125 -77.304688 29.171875 -77.546875 C 31.890625 -77.785156 34.609375 -78.015625 37.328125 -78.234375 C 40.046875 -78.460938 42.785156 -78.664062 45.546875 -78.84375 C 48.296875 -79.019531 51.0625 -79.164062 53.84375 -79.28125 C 56.632812 -79.40625 59.460938 -79.484375 62.328125 -79.515625 C 63.117188 -79.515625 63.890625 -79.445312 64.640625 -79.3125 C 65.398438 -79.175781 66.054688 -79.003906 66.609375 -78.796875 L 67.75 -73.9375 C 67.78125 -73.769531 67.8125 -73.609375 67.84375 -73.453125 C 67.875 -73.296875 67.910156 -73.128906 67.953125 -72.953125 C 67.984375 -72.785156 68.015625 -72.613281 68.046875 -72.4375 C 68.085938 -72.269531 68.125 -72.097656 68.15625 -71.921875 C 67.125 -71.304688 65.78125 -70.925781 64.125 -70.78125 L 41.09375 -68.203125 C 40.300781 -65.554688 39.457031 -62.878906 38.5625 -60.171875 C 37.675781 -57.472656 36.734375 -54.75 35.734375 -52 C 34.765625 -49.238281 33.78125 -46.460938 32.78125 -43.671875 C 31.789062 -40.890625 30.796875 -38.125 29.796875 -35.375 C 28.796875 -32.582031 27.804688 -29.804688 26.828125 -27.046875 C 25.847656 -24.296875 24.875 -21.5625 23.90625 -18.84375 C 22.9375 -16.125 22.039062 -13.429688 21.21875 -10.765625 C 20.394531 -8.097656 19.601562 -5.472656 18.84375 -2.890625 C 18.289062 -0.859375 17.289062 0.65625 15.84375 1.65625 Z M 15.84375 1.65625 "/></g></g></g><g fill="#00f000" fill-opacity="1"><g transform="translate(339.109905, 105.365597)"><g><path d="M 14.96875 -15.484375 C 15.65625 -16.035156 16.429688 -16.898438 17.296875 -18.078125 C 18.085938 -19.171875 18.914062 -20.410156 19.78125 -21.796875 C 20.1875 -22.484375 20.597656 -23.1875 21.015625 -23.90625 C 21.429688 -24.625 21.863281 -25.363281 22.3125 -26.125 C 22.71875 -26.882812 23.128906 -27.625 23.546875 -28.34375 C 23.960938 -29.070312 24.359375 -29.78125 24.734375 -30.46875 C 25.492188 -31.84375 26.21875 -33.078125 26.90625 -34.171875 C 27.59375 -35.273438 28.191406 -36.125 28.703125 -36.71875 L 28.703125 -36.65625 C 28.984375 -37 29.363281 -37.238281 29.84375 -37.375 C 30.320312 -37.519531 30.835938 -37.59375 31.390625 -37.59375 C 32.390625 -37.59375 33.320312 -37.332031 34.1875 -36.8125 C 35.007812 -36.300781 35.660156 -35.628906 36.140625 -34.796875 C 36.347656 -34.421875 36.554688 -34.066406 36.765625 -33.734375 C 36.972656 -33.410156 37.160156 -33.113281 37.328125 -32.84375 C 37.503906 -32.5625 37.6875 -32.28125 37.875 -32 C 38.0625 -31.726562 38.242188 -31.472656 38.421875 -31.234375 C 39.140625 -30.273438 40.101562 -29.296875 41.3125 -28.296875 C 42 -27.710938 42.410156 -27.210938 42.546875 -26.796875 C 42.679688 -26.378906 42.75 -25.878906 42.75 -25.296875 C 42.75 -24.609375 42.644531 -23.765625 42.4375 -22.765625 C 42.300781 -22.285156 42.171875 -21.785156 42.046875 -21.265625 C 41.929688 -20.753906 41.804688 -20.238281 41.671875 -19.71875 C 41.359375 -18.71875 41.097656 -17.703125 40.890625 -16.671875 C 40.648438 -15.710938 40.53125 -14.769531 40.53125 -13.84375 C 40.53125 -13.050781 40.71875 -12.515625 41.09375 -12.234375 C 41.820312 -12.546875 42.785156 -13.203125 43.984375 -14.203125 C 44.578125 -14.679688 45.195312 -15.222656 45.84375 -15.828125 C 46.5 -16.429688 47.171875 -17.054688 47.859375 -17.703125 C 48.546875 -18.398438 49.242188 -19.097656 49.953125 -19.796875 C 50.660156 -20.503906 51.394531 -21.238281 52.15625 -22 C 52.875 -22.75 53.566406 -23.46875 54.234375 -24.15625 C 54.910156 -24.851562 55.578125 -25.523438 56.234375 -26.171875 C 56.878906 -26.828125 57.476562 -27.429688 58.03125 -27.984375 C 58.582031 -28.535156 59.097656 -29.035156 59.578125 -29.484375 C 60.546875 -30.378906 61.203125 -30.929688 61.546875 -31.140625 C 62.335938 -30.484375 63.035156 -29.878906 63.640625 -29.328125 C 64.242188 -28.773438 64.769531 -28.3125 65.21875 -27.9375 C 66.070312 -27.144531 66.726562 -26.53125 67.1875 -26.09375 C 67.65625 -25.664062 67.976562 -25.367188 68.15625 -25.203125 C 68.320312 -24.992188 68.425781 -24.820312 68.46875 -24.6875 C 68.46875 -24.582031 68.363281 -24.375 68.15625 -24.0625 C 67.945312 -23.75 67.671875 -23.351562 67.328125 -22.875 C 66.984375 -22.394531 66.535156 -21.738281 65.984375 -20.90625 C 65.671875 -20.457031 65.332031 -19.984375 64.96875 -19.484375 C 64.613281 -18.992188 64.25 -18.453125 63.875 -17.859375 C 63.082031 -16.691406 62.253906 -15.46875 61.390625 -14.1875 C 60.523438 -12.914062 59.679688 -11.710938 58.859375 -10.578125 C 58.441406 -9.992188 58.046875 -9.4375 57.671875 -8.90625 C 57.296875 -8.375 56.9375 -7.867188 56.59375 -7.390625 C 56.25 -6.898438 55.929688 -6.472656 55.640625 -6.109375 C 55.347656 -5.753906 55.078125 -5.457031 54.828125 -5.21875 L 53.953125 -4.34375 C 53.335938 -3.71875 52.582031 -3.0625 51.6875 -2.375 C 51.238281 -2.03125 50.796875 -1.703125 50.359375 -1.390625 C 49.929688 -1.078125 49.476562 -0.785156 49 -0.515625 C 48.519531 -0.242188 48.03125 0.0195312 47.53125 0.28125 C 47.03125 0.539062 46.539062 0.753906 46.0625 0.921875 C 45.125 1.273438 44.175781 1.453125 43.21875 1.453125 C 42.351562 1.453125 41.507812 1.398438 40.6875 1.296875 C 39.863281 1.191406 39.054688 1.050781 38.265625 0.875 C 36.710938 0.46875 35.265625 -0.128906 33.921875 -0.921875 C 32.609375 -1.679688 31.453125 -2.628906 30.453125 -3.765625 C 29.460938 -4.898438 28.691406 -6.191406 28.140625 -7.640625 C 27.554688 -6.984375 26.898438 -6.328125 26.171875 -5.671875 C 25.453125 -5.023438 24.660156 -4.441406 23.796875 -3.921875 C 22.941406 -3.367188 22.03125 -2.921875 21.0625 -2.578125 C 20.101562 -2.234375 19.109375 -2.0625 18.078125 -2.0625 C 16.554688 -2.0625 14.941406 -2.3125 13.234375 -2.8125 C 11.535156 -3.3125 9.984375 -3.851562 8.578125 -4.4375 C 8.085938 -4.613281 7.609375 -4.796875 7.140625 -4.984375 C 6.679688 -5.171875 6.265625 -5.332031 5.890625 -5.46875 C 2.753906 -6.707031 0.328125 -8.257812 -1.390625 -10.125 C -3.078125 -11.914062 -3.921875 -14.238281 -3.921875 -17.09375 C -3.921875 -18.601562 -3.613281 -20.238281 -3 -22 C -2.375 -23.6875 -1.664062 -25.40625 -0.875 -27.15625 C -0.46875 -28.019531 -0.0546875 -28.863281 0.359375 -29.6875 C 0.773438 -30.507812 1.171875 -31.316406 1.546875 -32.109375 C 2.304688 -33.660156 2.84375 -35.070312 3.15625 -36.34375 C 3.289062 -37.03125 3.582031 -37.648438 4.03125 -38.203125 C 4.195312 -38.441406 4.390625 -38.664062 4.609375 -38.875 C 4.835938 -39.082031 5.070312 -39.273438 5.3125 -39.453125 C 5.800781 -39.828125 6.269531 -40.082031 6.71875 -40.21875 C 7.195312 -40.394531 7.609375 -40.5 7.953125 -40.53125 C 8.328125 -40.363281 8.710938 -40.175781 9.109375 -39.96875 C 9.503906 -39.757812 9.894531 -39.515625 10.28125 -39.234375 C 11.070312 -38.722656 11.84375 -38.15625 12.59375 -37.53125 C 12.976562 -37.226562 13.359375 -36.921875 13.734375 -36.609375 C 14.109375 -36.296875 14.488281 -35.984375 14.875 -35.671875 C 15.25 -35.328125 15.613281 -35.007812 15.96875 -34.71875 C 16.332031 -34.425781 16.6875 -34.144531 17.03125 -33.875 C 17.207031 -33.738281 17.390625 -33.59375 17.578125 -33.4375 C 17.765625 -33.28125 17.945312 -33.113281 18.125 -32.9375 C 18.46875 -32.59375 18.707031 -32.265625 18.84375 -31.953125 C 18.738281 -31.410156 18.5 -30.671875 18.125 -29.734375 C 17.75 -28.878906 17.3125 -27.898438 16.8125 -26.796875 C 16.3125 -25.691406 15.867188 -24.585938 15.484375 -23.484375 C 15.109375 -22.390625 14.867188 -21.394531 14.765625 -20.5 C 14.691406 -20.019531 14.640625 -19.554688 14.609375 -19.109375 C 14.578125 -18.660156 14.5625 -18.265625 14.5625 -17.921875 C 14.5625 -17.503906 14.566406 -17.019531 14.578125 -16.46875 C 14.597656 -15.914062 14.726562 -15.585938 14.96875 -15.484375 Z M 14.96875 -15.484375 "/></g></g></g><g fill="#00f000" fill-opacity="1"><g transform="translate(398.11777, 105.365597)"><g><path d="M 11.359375 -37.234375 C 12.117188 -37.234375 12.859375 -37.078125 13.578125 -36.765625 C 14.578125 -36.316406 15.5 -35.632812 16.34375 -34.71875 C 17.1875 -33.8125 17.832031 -32.890625 18.28125 -31.953125 C 19.070312 -32.992188 20 -34.03125 21.0625 -35.0625 C 22.132812 -36.019531 23.289062 -36.929688 24.53125 -37.796875 C 25.726562 -38.660156 26.878906 -39.332031 27.984375 -39.8125 C 29.148438 -40.289062 30.148438 -40.53125 30.984375 -40.53125 C 32.941406 -40.53125 34.816406 -40.03125 36.609375 -39.03125 C 38.328125 -38.070312 39.820312 -36.828125 41.09375 -35.296875 C 42.375 -33.765625 43.375 -32.160156 44.09375 -30.484375 C 44.8125 -28.816406 45.171875 -27.3125 45.171875 -25.96875 C 45.171875 -25.457031 45.15625 -24.941406 45.125 -24.421875 C 45.09375 -23.898438 45.039062 -23.398438 44.96875 -22.921875 C 44.90625 -22.410156 44.820312 -21.894531 44.71875 -21.375 C 44.613281 -20.851562 44.523438 -20.335938 44.453125 -19.828125 C 44.390625 -19.273438 44.3125 -18.738281 44.21875 -18.21875 C 44.132812 -17.707031 44.054688 -17.175781 43.984375 -16.625 C 43.921875 -16.070312 43.863281 -15.519531 43.8125 -14.96875 C 43.757812 -14.414062 43.734375 -13.867188 43.734375 -13.328125 C 43.734375 -12.222656 43.757812 -11.410156 43.8125 -10.890625 C 43.863281 -10.378906 44.078125 -10.085938 44.453125 -10.015625 C 45.078125 -10.148438 45.882812 -10.597656 46.875 -11.359375 C 47.363281 -11.734375 47.875 -12.144531 48.40625 -12.59375 C 48.9375 -13.039062 49.492188 -13.539062 50.078125 -14.09375 C 50.671875 -14.644531 51.265625 -15.222656 51.859375 -15.828125 C 52.460938 -16.429688 53.09375 -17.054688 53.75 -17.703125 C 54.40625 -18.359375 55.039062 -19.019531 55.65625 -19.6875 C 56.28125 -20.363281 56.921875 -21.046875 57.578125 -21.734375 C 58.804688 -23.078125 59.988281 -24.382812 61.125 -25.65625 C 62.269531 -26.9375 63.285156 -28.070312 64.171875 -29.0625 L 64.953125 -29.84375 C 65.085938 -29.976562 65.210938 -30.097656 65.328125 -30.203125 C 65.453125 -30.304688 65.585938 -30.425781 65.734375 -30.5625 C 65.835938 -30.5 66.007812 -30.347656 66.25 -30.109375 L 67.171875 -29.28125 C 67.378906 -29.101562 67.613281 -28.882812 67.875 -28.625 C 68.132812 -28.375 68.4375 -28.078125 68.78125 -27.734375 C 69.082031 -27.378906 69.441406 -26.992188 69.859375 -26.578125 C 70.273438 -26.171875 70.738281 -25.691406 71.25 -25.140625 C 71.488281 -24.867188 71.691406 -24.59375 71.859375 -24.3125 C 72.035156 -24.039062 72.175781 -23.769531 72.28125 -23.5 C 72.25 -23.1875 72.113281 -22.859375 71.875 -22.515625 C 71.738281 -22.335938 71.609375 -22.15625 71.484375 -21.96875 C 71.367188 -21.78125 71.238281 -21.597656 71.09375 -21.421875 C 70.6875 -20.773438 70.238281 -20.085938 69.75 -19.359375 C 69.269531 -18.640625 68.738281 -17.847656 68.15625 -16.984375 C 67.570312 -16.128906 66.953125 -15.28125 66.296875 -14.4375 C 65.640625 -13.59375 64.929688 -12.722656 64.171875 -11.828125 C 63.421875 -10.929688 62.648438 -10.039062 61.859375 -9.15625 C 61.066406 -8.28125 60.222656 -7.414062 59.328125 -6.5625 C 57.535156 -4.800781 55.625 -3.25 53.59375 -1.90625 C 51.5625 -0.53125 49.375 0.566406 47.03125 1.390625 C 44.726562 2.222656 42.285156 2.640625 39.703125 2.640625 C 37.535156 2.640625 35.765625 2.207031 34.390625 1.34375 C 32.972656 0.445312 31.851562 -0.722656 31.03125 -2.171875 C 30.207031 -3.617188 29.601562 -5.285156 29.21875 -7.171875 C 29.019531 -8.109375 28.84375 -9.054688 28.6875 -10.015625 C 28.53125 -10.984375 28.414062 -11.960938 28.34375 -12.953125 C 28.207031 -14.710938 28.128906 -16.316406 28.109375 -17.765625 C 28.097656 -19.210938 27.953125 -20.140625 27.671875 -20.546875 C 26.878906 -19.753906 26.15625 -18.707031 25.5 -17.40625 C 25.15625 -16.71875 24.820312 -16 24.5 -15.25 C 24.175781 -14.507812 23.84375 -13.742188 23.5 -12.953125 C 23.15625 -12.160156 22.816406 -11.351562 22.484375 -10.53125 C 22.160156 -9.707031 21.828125 -8.882812 21.484375 -8.0625 C 20.828125 -6.40625 20.101562 -4.890625 19.3125 -3.515625 C 18.9375 -2.828125 18.539062 -2.207031 18.125 -1.65625 C 17.707031 -1.101562 17.273438 -0.601562 16.828125 -0.15625 C 15.929688 0.707031 14.898438 1.140625 13.734375 1.140625 C 12.628906 1.140625 11.492188 1.015625 10.328125 0.765625 C 9.160156 0.523438 8.078125 0.203125 7.078125 -0.203125 C 6.046875 -0.546875 5.179688 -0.992188 4.484375 -1.546875 C 3.835938 -1.992188 3.425781 -2.492188 3.25 -3.046875 C 3.320312 -3.253906 3.414062 -3.53125 3.53125 -3.875 C 3.65625 -4.21875 3.800781 -4.613281 3.96875 -5.0625 C 4.144531 -5.507812 4.328125 -5.972656 4.515625 -6.453125 C 4.703125 -6.929688 4.898438 -7.429688 5.109375 -7.953125 C 5.484375 -8.984375 5.828125 -10 6.140625 -11 C 6.453125 -12 6.644531 -12.804688 6.71875 -13.421875 L 6.65625 -13.421875 C 6.789062 -13.804688 6.925781 -14.238281 7.0625 -14.71875 C 7.207031 -15.195312 7.347656 -15.710938 7.484375 -16.265625 C 7.617188 -16.816406 7.722656 -17.34375 7.796875 -17.84375 C 7.867188 -18.34375 7.90625 -18.832031 7.90625 -19.3125 C 7.90625 -19.65625 7.90625 -19.960938 7.90625 -20.234375 C 7.90625 -20.515625 7.882812 -20.738281 7.84375 -20.90625 C 7.78125 -21.320312 7.726562 -21.617188 7.6875 -21.796875 C 7.414062 -21.617188 7.109375 -21.425781 6.765625 -21.21875 C 6.421875 -21.007812 6.023438 -20.800781 5.578125 -20.59375 C 4.710938 -20.15625 3.972656 -19.9375 3.359375 -19.9375 C 3.222656 -19.9375 3.132812 -19.953125 3.09375 -19.984375 L -0.265625 -24.0625 C -0.398438 -24.226562 -0.523438 -24.394531 -0.640625 -24.5625 C -0.765625 -24.738281 -0.894531 -24.914062 -1.03125 -25.09375 C -1.132812 -25.269531 -1.226562 -25.453125 -1.3125 -25.640625 C -1.40625 -25.828125 -1.484375 -26.003906 -1.546875 -26.171875 C -1.234375 -26.929688 -0.648438 -27.945312 0.203125 -29.21875 C 0.617188 -29.84375 1.078125 -30.460938 1.578125 -31.078125 C 2.078125 -31.703125 2.617188 -32.304688 3.203125 -32.890625 C 4.367188 -34.054688 5.65625 -35.070312 7.0625 -35.9375 C 8.476562 -36.800781 9.910156 -37.234375 11.359375 -37.234375 Z M 11.359375 -37.234375 "/></g></g></g><g fill="#00f000" fill-opacity="1"><g transform="translate(462.184945, 105.365597)"><g><path d="M 19.5625 -62.9375 C 20.15625 -62.9375 20.984375 -62.6875 22.046875 -62.1875 C 23.109375 -61.6875 24.296875 -61.023438 25.609375 -60.203125 C 26.921875 -59.378906 28.242188 -58.457031 29.578125 -57.4375 C 30.921875 -56.425781 32.171875 -55.410156 33.328125 -54.390625 C 34.484375 -53.378906 35.457031 -52.425781 36.25 -51.53125 C 37.039062 -50.632812 37.519531 -49.894531 37.6875 -49.3125 C 37.789062 -48.925781 37.851562 -48.640625 37.875 -48.453125 C 37.894531 -48.265625 37.90625 -48.066406 37.90625 -47.859375 C 37.90625 -47.171875 37.84375 -46.4375 37.71875 -45.65625 C 37.59375 -44.882812 37.53125 -44.101562 37.53125 -43.3125 C 37.53125 -42.96875 37.601562 -42.539062 37.75 -42.03125 C 37.914062 -41.238281 38.265625 -40.109375 38.796875 -38.640625 C 39.335938 -37.179688 39.90625 -35.53125 40.5 -33.6875 C 41.101562 -31.84375 41.628906 -29.941406 42.078125 -27.984375 C 42.523438 -26.023438 42.75 -24.132812 42.75 -22.3125 L 44.5 -24.3125 C 45.5 -25.445312 46.644531 -26.554688 47.9375 -27.640625 C 49.226562 -28.734375 50.71875 -30 52.40625 -31.4375 C 52.644531 -31.375 53.066406 -31.082031 53.671875 -30.5625 C 54.273438 -30.050781 54.910156 -29.453125 55.578125 -28.765625 C 56.253906 -28.078125 56.832031 -27.410156 57.3125 -26.765625 C 57.789062 -26.128906 58.03125 -25.640625 58.03125 -25.296875 C 55.65625 -22.023438 53.148438 -18.910156 50.515625 -15.953125 C 47.890625 -12.992188 45.0625 -10.367188 42.03125 -8.078125 C 39 -5.785156 35.726562 -3.976562 32.21875 -2.65625 C 28.707031 -1.332031 24.90625 -0.671875 20.8125 -0.671875 C 19.15625 -0.671875 17.421875 -1.039062 15.609375 -1.78125 C 13.804688 -2.519531 12.035156 -3.507812 10.296875 -4.75 C 8.554688 -5.988281 6.953125 -7.40625 5.484375 -9 C 4.023438 -10.601562 2.800781 -12.25 1.8125 -13.9375 L -0.3125 -11.875 C -1.070312 -11.5 -1.863281 -11.3125 -2.6875 -11.3125 C -3.613281 -11.3125 -4.488281 -11.535156 -5.3125 -11.984375 C -6.144531 -12.429688 -6.867188 -12.976562 -7.484375 -13.625 C -8.109375 -14.28125 -8.59375 -14.9375 -8.9375 -15.59375 C -9.28125 -16.25 -9.453125 -16.800781 -9.453125 -17.25 C -9.453125 -18.101562 -9.207031 -18.941406 -8.71875 -19.765625 C -8.238281 -20.597656 -7.671875 -21.375 -7.015625 -22.09375 C -6.367188 -22.820312 -5.769531 -23.441406 -5.21875 -23.953125 C -2.769531 -26.328125 -0.351562 -28.660156 2.03125 -30.953125 C 4.425781 -33.242188 6.757812 -35.773438 9.03125 -38.546875 C 11.300781 -41.316406 13.523438 -44.578125 15.703125 -48.328125 C 15.796875 -48.597656 15.859375 -48.929688 15.890625 -49.328125 C 15.929688 -49.722656 15.953125 -50.128906 15.953125 -50.546875 L 15.953125 -51.265625 C 16.265625 -52.203125 16.425781 -53.132812 16.4375 -54.0625 C 16.457031 -54.988281 16.503906 -55.9375 16.578125 -56.90625 C 16.609375 -57.3125 16.664062 -57.847656 16.75 -58.515625 C 16.84375 -59.191406 16.988281 -59.863281 17.1875 -60.53125 C 17.394531 -61.207031 17.6875 -61.773438 18.0625 -62.234375 C 18.445312 -62.703125 18.945312 -62.9375 19.5625 -62.9375 Z M 25.71875 -35.15625 C 24.613281 -32.988281 23.207031 -30.96875 21.5 -29.09375 C 19.800781 -27.21875 17.976562 -25.46875 16.03125 -23.84375 C 14.082031 -22.226562 12.195312 -20.703125 10.375 -19.265625 C 10.789062 -18.640625 11.375 -18.066406 12.125 -17.546875 C 12.882812 -17.035156 13.660156 -16.632812 14.453125 -16.34375 C 15.242188 -16.050781 15.914062 -15.90625 16.46875 -15.90625 C 18.570312 -15.96875 20.445312 -16.515625 22.09375 -17.546875 C 23.75 -18.585938 25.050781 -19.90625 26 -21.5 C 26.945312 -23.101562 27.421875 -24.765625 27.421875 -26.484375 L 27.421875 -27 C 27.316406 -28.445312 27.117188 -29.910156 26.828125 -31.390625 C 26.535156 -32.867188 26.164062 -34.125 25.71875 -35.15625 Z M 25.71875 -35.15625 "/></g></g></g></svg>